# MagicaVoxel @ Ephtracy

# material
mtllib cloud.mtl
usemtl palette

# normals
vn -1 0 0
vn 1 0 0
vn 0 0 1
vn 0 0 -1
vn 0 -1 0
vn 0 1 0

# texcoords
vt 0.958984 0.5

# verts
v -2 21 6
v -2 21 1
v -2 26 6
v -2 26 1
v -1 18 10
v -1 18 -1
v -1 21 6
v -1 21 1
v -1 26 12
v -1 26 10
v -1 26 6
v -1 26 1
v -1 29 12
v -1 29 -1
v 0 29 9
v 0 29 -0
v 0 32 9
v 0 32 -0
v 3 18 13
v 3 18 10
v 3 25 13
v 3 25 10
v 3 32 6
v 3 32 3
v 3 34 6
v 3 34 3
v 4 24 -1
v 4 24 -4
v 4 29 -1
v 4 29 -4
v 2 26 12
v 2 26 10
v 2 29 12
v 2 29 10
v 6 32 6
v 6 32 3
v 6 34 6
v 6 34 3
v 9 24 -1
v 9 24 -4
v 9 29 9
v 9 29 -0
v 9 29 -1
v 9 29 -4
v 9 32 9
v 9 32 -0
v 10 18 13
v 10 18 6
v 10 25 13
v 10 25 10
v 10 25 6
v 10 25 -1
v 10 29 10
v 10 29 -1
v 12 18 6
v 12 18 -1
v 12 19 5
v 12 19 -0
v 12 24 5
v 12 24 -0
v 12 25 6
v 12 25 -1
v 14 19 5
v 14 19 -0
v 14 24 5
v 14 24 -0
v 3 18 13
v 3 25 13
v 10 18 13
v 10 25 13
v -1 26 12
v -1 29 12
v 2 26 12
v 2 29 12
v -1 18 10
v -1 26 10
v 2 26 10
v 2 29 10
v 3 18 10
v 3 25 10
v 10 25 10
v 10 29 10
v 0 29 9
v 0 32 9
v 9 29 9
v 9 32 9
v -2 21 6
v -2 26 6
v -1 21 6
v -1 26 6
v 3 32 6
v 3 34 6
v 6 32 6
v 6 34 6
v 10 18 6
v 10 25 6
v 12 18 6
v 12 25 6
v 12 19 5
v 12 24 5
v 14 19 5
v 14 24 5
v 3 32 3
v 3 34 3
v 6 32 3
v 6 34 3
v -2 21 1
v -2 26 1
v -1 21 1
v -1 26 1
v 0 29 -0
v 0 32 -0
v 9 29 -0
v 9 32 -0
v 12 19 -0
v 12 24 -0
v 14 19 -0
v 14 24 -0
v -1 18 -1
v -1 29 -1
v 4 24 -1
v 4 29 -1
v 9 24 -1
v 9 29 -1
v 10 25 -1
v 10 29 -1
v 12 18 -1
v 12 25 -1
v 4 24 -4
v 4 29 -4
v 9 24 -4
v 9 29 -4
v 3 18 13
v 10 18 13
v -1 18 10
v 3 18 10
v 10 18 6
v 12 18 6
v -1 18 -1
v 12 18 -1
v 12 19 5
v 14 19 5
v 12 19 -0
v 14 19 -0
v -2 21 6
v -1 21 6
v -2 21 1
v -1 21 1
v 4 24 -1
v 9 24 -1
v 4 24 -4
v 9 24 -4
v -1 26 12
v 2 26 12
v -1 26 10
v 2 26 10
v 12 24 5
v 14 24 5
v 12 24 -0
v 14 24 -0
v 3 25 13
v 10 25 13
v 3 25 10
v 10 25 10
v 10 25 6
v 12 25 6
v 10 25 -1
v 12 25 -1
v -2 26 6
v -1 26 6
v -2 26 1
v -1 26 1
v -1 29 12
v 2 29 12
v 2 29 10
v 10 29 10
v 0 29 9
v 9 29 9
v 0 29 -0
v 9 29 -0
v -1 29 -1
v 4 29 -1
v 9 29 -1
v 10 29 -1
v 4 29 -4
v 9 29 -4
v 0 32 9
v 9 32 9
v 3 32 6
v 6 32 6
v 3 32 3
v 6 32 3
v 0 32 -0
v 9 32 -0
v 3 34 6
v 6 34 6
v 3 34 3
v 6 34 3

# faces
f 3/1/1 2/1/1 1/1/1
f 4/1/1 2/1/1 3/1/1
f 7/1/1 6/1/1 5/1/1
f 8/1/1 6/1/1 7/1/1
f 10/1/1 7/1/1 5/1/1
f 11/1/1 7/1/1 10/1/1
f 12/1/1 6/1/1 8/1/1
f 13/1/1 11/1/1 10/1/1
f 13/1/1 12/1/1 11/1/1
f 13/1/1 10/1/1 9/1/1
f 14/1/1 6/1/1 12/1/1
f 14/1/1 12/1/1 13/1/1
f 17/1/1 16/1/1 15/1/1
f 18/1/1 16/1/1 17/1/1
f 21/1/1 20/1/1 19/1/1
f 22/1/1 20/1/1 21/1/1
f 25/1/1 24/1/1 23/1/1
f 26/1/1 24/1/1 25/1/1
f 29/1/1 28/1/1 27/1/1
f 30/1/1 28/1/1 29/1/1
f 31/1/2 32/1/2 33/1/2
f 33/1/2 32/1/2 34/1/2
f 35/1/2 36/1/2 37/1/2
f 37/1/2 36/1/2 38/1/2
f 39/1/2 40/1/2 43/1/2
f 43/1/2 40/1/2 44/1/2
f 41/1/2 42/1/2 45/1/2
f 45/1/2 42/1/2 46/1/2
f 47/1/2 48/1/2 49/1/2
f 49/1/2 48/1/2 50/1/2
f 50/1/2 48/1/2 51/1/2
f 51/1/2 52/1/2 53/1/2
f 50/1/2 51/1/2 53/1/2
f 53/1/2 52/1/2 54/1/2
f 55/1/2 56/1/2 57/1/2
f 57/1/2 56/1/2 58/1/2
f 55/1/2 57/1/2 59/1/2
f 58/1/2 56/1/2 60/1/2
f 55/1/2 59/1/2 61/1/2
f 59/1/2 60/1/2 61/1/2
f 60/1/2 56/1/2 62/1/2
f 61/1/2 60/1/2 62/1/2
f 63/1/2 64/1/2 65/1/2
f 65/1/2 64/1/2 66/1/2
f 69/1/3 68/1/3 67/1/3
f 70/1/3 68/1/3 69/1/3
f 73/1/3 72/1/3 71/1/3
f 74/1/3 72/1/3 73/1/3
f 77/1/3 76/1/3 75/1/3
f 79/1/3 77/1/3 75/1/3
f 79/1/3 78/1/3 77/1/3
f 80/1/3 78/1/3 79/1/3
f 81/1/3 78/1/3 80/1/3
f 82/1/3 78/1/3 81/1/3
f 85/1/3 84/1/3 83/1/3
f 86/1/3 84/1/3 85/1/3
f 89/1/3 88/1/3 87/1/3
f 90/1/3 88/1/3 89/1/3
f 93/1/3 92/1/3 91/1/3
f 94/1/3 92/1/3 93/1/3
f 97/1/3 96/1/3 95/1/3
f 98/1/3 96/1/3 97/1/3
f 101/1/3 100/1/3 99/1/3
f 102/1/3 100/1/3 101/1/3
f 103/1/4 104/1/4 105/1/4
f 105/1/4 104/1/4 106/1/4
f 107/1/4 108/1/4 109/1/4
f 109/1/4 108/1/4 110/1/4
f 111/1/4 112/1/4 113/1/4
f 113/1/4 112/1/4 114/1/4
f 115/1/4 116/1/4 117/1/4
f 117/1/4 116/1/4 118/1/4
f 119/1/4 120/1/4 121/1/4
f 121/1/4 120/1/4 122/1/4
f 119/1/4 121/1/4 123/1/4
f 123/1/4 124/1/4 125/1/4
f 125/1/4 124/1/4 126/1/4
f 119/1/4 123/1/4 127/1/4
f 123/1/4 125/1/4 127/1/4
f 127/1/4 125/1/4 128/1/4
f 129/1/4 130/1/4 131/1/4
f 131/1/4 130/1/4 132/1/4
f 136/1/5 134/1/5 133/1/5
f 137/1/5 134/1/5 136/1/5
f 137/1/5 136/1/5 135/1/5
f 139/1/5 137/1/5 135/1/5
f 139/1/5 138/1/5 137/1/5
f 140/1/5 138/1/5 139/1/5
f 143/1/5 142/1/5 141/1/5
f 144/1/5 142/1/5 143/1/5
f 147/1/5 146/1/5 145/1/5
f 148/1/5 146/1/5 147/1/5
f 151/1/5 150/1/5 149/1/5
f 152/1/5 150/1/5 151/1/5
f 155/1/5 154/1/5 153/1/5
f 156/1/5 154/1/5 155/1/5
f 157/1/6 158/1/6 159/1/6
f 159/1/6 158/1/6 160/1/6
f 161/1/6 162/1/6 163/1/6
f 163/1/6 162/1/6 164/1/6
f 165/1/6 166/1/6 167/1/6
f 167/1/6 166/1/6 168/1/6
f 169/1/6 170/1/6 171/1/6
f 171/1/6 170/1/6 172/1/6
f 173/1/6 174/1/6 175/1/6
f 173/1/6 175/1/6 177/1/6
f 175/1/6 176/1/6 177/1/6
f 177/1/6 176/1/6 178/1/6
f 173/1/6 177/1/6 179/1/6
f 178/1/6 176/1/6 180/1/6
f 173/1/6 179/1/6 181/1/6
f 179/1/6 180/1/6 181/1/6
f 181/1/6 180/1/6 182/1/6
f 180/1/6 176/1/6 183/1/6
f 182/1/6 180/1/6 183/1/6
f 183/1/6 176/1/6 184/1/6
f 182/1/6 183/1/6 185/1/6
f 185/1/6 183/1/6 186/1/6
f 187/1/6 188/1/6 189/1/6
f 189/1/6 188/1/6 190/1/6
f 187/1/6 189/1/6 191/1/6
f 190/1/6 188/1/6 192/1/6
f 187/1/6 191/1/6 193/1/6
f 191/1/6 192/1/6 193/1/6
f 192/1/6 188/1/6 194/1/6
f 193/1/6 192/1/6 194/1/6
f 195/1/6 196/1/6 197/1/6
f 197/1/6 196/1/6 198/1/6
